<?xml version="1.0" encoding="utf-8"?>
<!-- Generator: Adobe Illustrator 21.1.0, SVG Export Plug-In . SVG Version: 6.00 Build 0)  -->
<svg version="1.1" id="Layer_1" xmlns="http://www.w3.org/2000/svg" xmlns:xlink="http://www.w3.org/1999/xlink" x="0px" y="0px"
	 viewBox="0 0 96 125.3" style="enable-background:new 0 0 96 125.3;" xml:space="preserve">
<style type="text/css">
	.st0{fill:#FFFFFF;}
</style>
<path class="st0" d="M92.5,21.6c-1.8-0.8-3.8,0.1-4.6,1.9c-1.9,4.5-6.3,7.4-11.3,7.4c-5,0.1-9.4-2.9-11.4-7.5
	c-0.7-1.8-2.8-2.6-4.6-1.9c-1,0.4-1.7,1.2-2,2.2c-2,4.4-6.3,7.2-11.2,7.2c-4.9,0.1-9.3-2.9-11.3-7.5c-0.7-1.8-2.8-2.6-4.6-1.9
	c-1,0.4-1.7,1.2-2,2.2c-2,4.4-6.3,7.2-11.2,7.2C13.3,31,9,28,7,23.4c-0.5-1.8-2.6-2.6-4.3-1.9c-1.8,0.7-2.7,2.8-1.9,4.6
	c3,7.2,9.9,11.8,17.5,11.8c0.1,0,0.2,0,0.3,0c5.7,0,10.9-2.5,14.5-6.6c3.6,4.1,8.7,6.6,14.3,6.6c0.1,0,0.2,0,0.3,0
	c5.7,0,10.9-2.5,14.5-6.6c3.6,4.1,8.8,6.6,14.4,6.6c0.1,0,0.2,0,0.3,0c7.7,0,14.7-4.6,17.7-11.7C95.1,24.4,94.3,22.4,92.5,21.6z"/>
<polygon class="st0" points="22.7,67.2 14.9,57.4 7,67.2 1.6,62.8 14.9,46.1 28.2,62.8 "/>
<polygon class="st0" points="88.9,67.2 81.1,57.4 73.3,67.2 67.8,62.8 81.1,46.1 94.4,62.8 "/>
<polygon class="st0" points="55.9,67.2 48.1,57.4 40.2,67.2 34.8,62.8 48.1,46.1 61.4,62.8 "/>
<path class="st0" d="M78.5,93.6c-5.6,0-8.5-3.9-10.5-6.8c-2-2.8-3-4-5-4s-2.9,1.1-5,4s-4.9,6.8-10.5,6.8S39,89.7,37,86.8
	c-2-2.8-3-4-5-4s-2.9,1.1-5,4s-4.9,6.8-10.5,6.8S8,89.7,6,86.8c-2-2.8-3-4-5-4v-7c5.7,0,8.6,4,10.6,6.9c2,2.8,3,3.9,4.9,3.9
	s2.9-1.1,4.9-3.9c2.1-2.9,4.9-6.9,10.6-6.9s8.6,4,10.6,6.9c2,2.8,3,3.9,4.9,3.9s2.9-1.1,4.9-3.9c2.1-2.9,4.9-6.9,10.6-6.9
	s8.6,4,10.6,6.9c2,2.8,3,3.9,4.9,3.9s2.9-1.1,5-4s4.9-6.8,10.5-6.8v7c-1.9,0-2.9,1.1-4.9,3.9C87.1,89.6,84.2,93.6,78.5,93.6z"/>
<g>
	<path class="st0" d="M13.2,123.1h-1.3l-6-10.3l0,0v9.1h1.9v1.2H3v-1.2h1.6v-10.2H3v-1.2h3l5.8,10.2l0,0v-9h-2v-1.2h4.6v1.2h-1.3
		v11.4H13.2z"/>
	<path class="st0" d="M29.1,121.9h1v1.2h-4.2v-1.2h1.8l-1-2.7h-5l-1,2.7h1.8v1.2h-4.2v-1.2h1l4.8-12.6L29.1,121.9z M24.1,112.2
		L22,118h4.2L24.1,112.2z"/>
	<path class="st0" d="M36.2,123.1v-1.2H39v-10.2h-1.7c-1.4,0-1.6,0.2-1.6,1.7v1.6h-1.3v-4.4h10.5v4.4h-1.3v-1.7
		c0-1.5-0.1-1.7-1.6-1.7h-1.7v10.2H43v1.2h-6.8V123.1z"/>
	<path class="st0" d="M59,110.5v1.2h-3.4v10.2H59v1.2h-8v-1.2h3.4v-10.2H51v-1.2C51,110.5,59,110.5,59,110.5z"/>
	<path class="st0" d="M65.4,116.8c0-3.2,1.6-6.6,5-6.6s5,3.4,5,6.6s-1.6,6.6-5,6.6S65.4,120,65.4,116.8z M74.1,116.8
		c0-2.4-1-5.4-3.7-5.4s-3.7,3-3.7,5.4s1,5.4,3.7,5.4S74.1,119.2,74.1,116.8z"/>
	<path class="st0" d="M90.3,123.1H89l-6-10.3l0,0v9.1h1.9v1.2h-4.8v-1.2h1.6v-10.2h-1.6v-1.2h3l5.8,10.2l0,0v-9h-2v-1.2h4.6v1.2
		h-1.3v11.4H90.3z"/>
</g>
</svg>
