<?xml version="1.0" encoding="utf-8"?>
<!-- Generator: Adobe Illustrator 21.1.0, SVG Export Plug-In . SVG Version: 6.00 Build 0)  -->
<svg version="1.1" id="Layer_1" xmlns="http://www.w3.org/2000/svg" xmlns:xlink="http://www.w3.org/1999/xlink" x="0px" y="0px"
	 viewBox="0 0 96 116" style="enable-background:new 0 0 96 116;" xml:space="preserve">
<path d="M92.5,12.3c-1.8-0.8-3.8,0.1-4.6,1.9c-1.9,4.5-6.3,7.4-11.3,7.4c-5,0.1-9.4-2.9-11.4-7.5c-0.7-1.8-2.8-2.6-4.6-1.9
	c-1,0.4-1.7,1.2-2,2.2c-2,4.4-6.3,7.2-11.2,7.2c-4.9,0.1-9.3-2.9-11.3-7.5c-0.7-1.8-2.8-2.6-4.6-1.9c-1,0.4-1.7,1.2-2,2.2
	c-2,4.4-6.3,7.2-11.2,7.2c-5,0.1-9.3-2.9-11.3-7.5c-0.7-1.8-2.8-2.6-4.6-1.9C0.9,12.9,0,15,0.8,16.8c3,7.2,9.9,11.8,17.5,11.8
	c0.1,0,0.2,0,0.3,0c5.7,0,10.9-2.5,14.5-6.6c3.6,4.1,8.7,6.6,14.3,6.6c0.1,0,0.2,0,0.3,0c5.7,0,10.9-2.5,14.5-6.6
	c3.6,4.1,8.8,6.6,14.4,6.6c0.1,0,0.2,0,0.3,0c7.7,0,14.7-4.6,17.7-11.7C95.1,15.1,94.3,13.1,92.5,12.3z"/>
<polygon points="22.7,57.9 14.9,48.1 7,57.9 1.6,53.5 14.9,36.8 28.2,53.5 "/>
<polygon points="88.9,57.9 81.1,48.1 73.3,57.9 67.8,53.5 81.1,36.8 94.4,53.5 "/>
<polygon points="55.9,57.9 48.1,48.1 40.2,57.9 34.8,53.5 48.1,36.8 61.4,53.5 "/>
<path d="M78.5,84.3c-5.6,0-8.5-3.9-10.5-6.8c-2-2.8-3-4-5-4s-2.9,1.1-5,4c-2.1,2.9-4.9,6.8-10.5,6.8S39,80.4,37,77.5c-2-2.8-3-4-5-4
	s-2.9,1.1-5,4c-2.1,2.9-4.9,6.8-10.5,6.8S8,80.4,6,77.5c-2-2.8-3-4-5-4v-7c5.7,0,8.6,4,10.6,6.9c2,2.8,3,3.9,4.9,3.9
	s2.9-1.1,4.9-3.9c2.1-2.9,4.9-6.9,10.6-6.9s8.6,4,10.6,6.9c2,2.8,3,3.9,4.9,3.9s2.9-1.1,4.9-3.9c2.1-2.9,4.9-6.9,10.6-6.9
	s8.6,4,10.6,6.9c2,2.8,3,3.9,4.9,3.9c1.9,0,2.9-1.1,5-4c2.1-2.9,4.9-6.8,10.5-6.8v7c-1.9,0-2.9,1.1-4.9,3.9
	C87.1,80.3,84.2,84.3,78.5,84.3z"/>
<g>
	<path d="M13.2,113.8h-1.3l-5.9-10.2h0v9.1h1.9v1.2H3v-1.2h1.6v-10.2H3v-1.2h3l5.8,10.2h0v-9h-2v-1.2h4.6v1.2h-1.3V113.8z"/>
	<path d="M29.1,112.6h1v1.2h-4.2v-1.2h1.8l-1-2.7h-5l-1,2.7h1.8v1.2h-4.2v-1.2h1l4.8-12.6L29.1,112.6z M24.1,102.9l-2.1,5.8h4.2
		L24.1,102.9z"/>
	<path d="M36.2,113.8v-1.2H39v-10.2h-1.7c-1.4,0-1.6,0.2-1.6,1.7v1.6h-1.3v-4.4h10.5v4.4h-1.3V104c0-1.5-0.1-1.7-1.6-1.7h-1.7v10.2
		H43v1.2H36.2z"/>
	<path d="M59,101.2v1.2h-3.4v10.2H59v1.2h-8v-1.2h3.4v-10.2H51v-1.2H59z"/>
	<path d="M65.4,107.5c0-3.2,1.6-6.6,5-6.6s5,3.4,5,6.6s-1.6,6.6-5,6.6S65.4,110.7,65.4,107.5z M74.1,107.5c0-2.4-1-5.4-3.7-5.4
		s-3.7,3-3.7,5.4s1,5.4,3.7,5.4S74.1,109.9,74.1,107.5z"/>
	<path d="M90.3,113.8h-1.3L83,103.5h0v9.1h1.9v1.2h-4.8v-1.2h1.6v-10.2h-1.6v-1.2h3l5.8,10.2h0v-9h-2v-1.2h4.6v1.2h-1.3V113.8z"/>
</g>
</svg>
